<?xml version="1.0" encoding="utf-8"?>
<!-- Svg Vector Icons : http://www.onlinewebfonts.com/icon -->
<!DOCTYPE svg PUBLIC "-//W3C//DTD SVG 1.1//EN" "http://www.w3.org/Graphics/SVG/1.1/DTD/svg11.dtd">
<svg version="1.1" xmlns="http://www.w3.org/2000/svg" xmlns:xlink="http://www.w3.org/1999/xlink" x="0px" y="0px" viewBox="0 0 1000 1000" enable-background="new 0 0 1000 1000" xml:space="preserve">
<metadata> Svg Vector Icons : http://www.onlinewebfonts.com/icon </metadata>
<g><path d="M224.7,339c36.1-27.1,65.3-12.4,65.3,32.7v256.7c0,45.1-29.2,59.7-65.3,32.7L75.3,549c-36.1-27.1-36.1-70.9,0-98L224.7,339z M10,64.4C10,34.4,34.4,10,64.4,10h871.1c30.1,0,54.4,24.4,54.4,54.4c0,30.1-24.4,54.4-54.4,54.4H64.4C34.4,118.9,10,94.5,10,64.4z M10,935.6c0-30.1,24.4-54.4,54.4-54.4h871.1c30.1,0,54.4,24.4,54.4,54.4c0,30.1-24.4,54.4-54.4,54.4H64.4C34.4,990,10,965.6,10,935.6z M418.3,336.7c0-30.1,24.4-54.4,54.4-54.4h435.6c30.1,0,54.4,24.4,54.4,54.4c0,30.1-24.4,54.4-54.4,54.4H472.8C442.7,391.1,418.3,366.7,418.3,336.7z M418.3,663.3c0-30.1,24.4-54.4,54.4-54.4h435.6c30.1,0,54.4,24.4,54.4,54.4c0,30.1-24.4,54.4-54.4,54.4H472.8C442.7,717.8,418.3,693.4,418.3,663.3z"/></g>
</svg>